<?xml version="1.0" encoding="utf-8"?>
<!-- Generator: Adobe Illustrator 16.0.0, SVG Export Plug-In . SVG Version: 6.00 Build 0)  -->
<!DOCTYPE svg PUBLIC "-//W3C//DTD SVG 1.1//EN" "http://www.w3.org/Graphics/SVG/1.1/DTD/svg11.dtd">
<svg version="1.1" id="Layer_1" xmlns="http://www.w3.org/2000/svg" xmlns:xlink="http://www.w3.org/1999/xlink" x="0px" y="0px"
	 width="600px" height="600px" viewBox="0 0 600 600" enable-background="new 0 0 600 600" xml:space="preserve">
<path id="color_x5F_2" fill="#F93B47" d="M471.016,231.151L350.061,110.197h-77.325L0.367,382.565v77.325l120.955,120.954h77.326
	l272.368-272.368V231.151z M351.843,229.369c-10.515-10.515-10.515-27.563,0-38.079s27.563-10.515,38.079,0
	c10.515,10.515,10.516,27.563,0,38.079S362.358,239.884,351.843,229.369z"/>
<path id="color_x5F_1" fill="#02273A" d="M598.399,87.739c-0.757-0.004-1.511-0.008-2.268-0.008c-21.686,0-44.632,1.52-67.211,4.666
	l-0.257-0.456c7.567-10.964,14.473-21.492,20.652-30.923c12.156-18.553,21.758-33.204,28.536-39.434
	c0.654-0.599,0.697-1.622,0.094-2.276c-0.599-0.65-1.612-0.702-2.276-0.094c-7.072,6.5-16.769,21.3-29.049,40.037
	c-5.922,9.039-12.512,19.091-19.717,29.571l-0.291-0.517c-0.441-0.783-1.421-1.048-2.195-0.612s-1.049,1.421-0.612,2.195
	l0.023,0.042c-0.481-0.64-1.372-0.841-2.073-0.439c-0.659,0.372-0.951,1.14-0.754,1.838c-0.5-0.508-1.286-0.641-1.933-0.272
	c-0.774,0.437-1.048,1.42-0.612,2.195l0.377,0.668c-53.846,8.724-104.171,26.91-128.452,56.049
	c-3.747,4.496-6.819,9.195-9.264,14.073l-37.261-37.26c-0.299-0.304-0.71-0.471-1.138-0.471h-62.643
	c-0.428,0-0.839,0.167-1.139,0.471L16.952,388.767c-0.304,0.3-0.47,0.711-0.47,1.139v62.647c0,0.428,0.167,0.838,0.47,1.138
	l110.571,110.575c0.299,0.303,0.71,0.47,1.138,0.47l62.647-0.004c0.428,0,0.839-0.167,1.138-0.471l261.987-261.987
	c0.304-0.299,0.471-0.71,0.471-1.138v-62.643c0-0.428-0.167-0.838-0.471-1.138l-70.899-70.898c2.402-5.014,5.497-9.832,9.326-14.426
	c23.958-28.753,74.066-46.638,127.646-55.144l0.35,0.619c-24.449,34.595-55.286,72.029-91.033,92.453l2.35,2.35
	c35.544-20.584,66.103-57.43,90.43-91.703l0.477,0.845c0.296,0.526,0.844,0.821,1.404,0.821c0.27,0,0.539-0.068,0.791-0.209
	c0.66-0.372,0.952-1.142,0.755-1.841c0.306,0.31,0.722,0.48,1.146,0.48c0.27,0,0.543-0.068,0.791-0.21
	c0.774-0.436,1.049-1.42,0.612-2.195l-0.036-0.063c0.31,0.425,0.789,0.671,1.289,0.671c0.27,0,0.539-0.069,0.792-0.21
	c0.774-0.437,1.048-1.42,0.612-2.195l-0.622-1.103c22.008-2.994,44.356-4.443,65.507-4.443c0.758,0,1.459-0.064,2.271,0.004
	c0.887,0,1.605-0.714,1.609-1.6C600.008,88.467,599.289,87.744,598.399,87.739z M451.686,239.16v61.308L190.64,561.514
	l-61.312,0.004l-13.159-13.159L243.497,421.03l-83.315-83.315L32.855,465.042l-13.157-13.157v-61.313l261.045-261.045h61.309
	l37.607,37.609c-2.328,5.318-3.904,10.849-4.729,16.577c-8.169-1.236-16.798,1.288-23.088,7.578
	c-10.515,10.515-10.515,27.563,0,38.079s27.563,10.515,38.079,0s10.515-27.563,0-38.079c-3.4-3.4-7.484-5.693-11.809-6.895
	c0.715-5.098,2.053-10.031,4.018-14.79L451.686,239.16z M384.769,208.246c0.638,4.257-0.667,8.748-3.944,12.026
	c-5.49,5.491-14.393,5.491-19.884,0s-5.491-14.393,0-19.884c3.632-3.632,8.754-4.846,13.397-3.673
	c0.169,3.474,0.592,7.012,1.27,10.61c0.001,0.007,0.006,0.013,0.008,0.02c0.032,0.163,0.094,0.314,0.172,0.455
	c0.017,0.03,0.031,0.06,0.049,0.088c0.082,0.127,0.182,0.241,0.295,0.34c0.029,0.026,0.058,0.049,0.089,0.073
	c0.118,0.09,0.246,0.166,0.387,0.22c0.035,0.014,0.071,0.021,0.108,0.033c0.133,0.042,0.272,0.068,0.418,0.073
	c0.02,0.001,0.037,0.01,0.058,0.01c0.019,0,0.037-0.005,0.056-0.005C379.771,208.606,382.278,208.471,384.769,208.246z
	 M383.932,205.095c0.2,0.498,0.361,1.006,0.502,1.52C384.297,206.101,384.132,205.593,383.932,205.095z M384.461,206.726
	c0.125,0.475,0.219,0.957,0.295,1.44C384.68,207.682,384.583,207.201,384.461,206.726z M378.553,205.376
	c-0.423-2.482-0.715-4.932-0.884-7.351c1.13,0.624,2.197,1.404,3.155,2.363c1.387,1.387,2.422,2.993,3.107,4.706
	C382.148,205.244,380.354,205.33,378.553,205.376z"/>
</svg>
